<?xml version="1.0" encoding="UTF-8" standalone="no"?>
<!-- Generator: Adobe Illustrator 14.0.0, SVG Export Plug-In . SVG Version: 6.00 Build 43363)  -->

<svg
   version="1.1"
   id="Layer_1"
   x="0px"
   y="0px"
   width="612px"
   height="792px"
   viewBox="0 0 612 792"
   enable-background="new 0 0 612 792"
   xml:space="preserve"
   sodipodi:docname="scada.svg"
   inkscape:version="1.1 (ce6663b3b7, 2021-05-25)"
   xmlns:inkscape="http://www.inkscape.org/namespaces/inkscape"
   xmlns:sodipodi="http://sodipodi.sourceforge.net/DTD/sodipodi-0.dtd"
   xmlns="http://www.w3.org/2000/svg"
   xmlns:svg="http://www.w3.org/2000/svg"><defs
   id="defs21" /><sodipodi:namedview
   id="namedview19"
   pagecolor="#ffffff"
   bordercolor="#666666"
   borderopacity="1.0"
   inkscape:pageshadow="2"
   inkscape:pageopacity="0.0"
   inkscape:pagecheckerboard="0"
   showgrid="false"
   inkscape:zoom="0.97222222"
   inkscape:cx="306"
   inkscape:cy="398.57143"
   inkscape:window-width="1920"
   inkscape:window-height="942"
   inkscape:window-x="0"
   inkscape:window-y="27"
   inkscape:window-maximized="1"
   inkscape:current-layer="Layer_1" />
<g
   id="g16"
   transform="matrix(2.9953677,0,0,3.3074408,-598.89534,-893.30663)">
	<polygon
   fill-rule="evenodd"
   clip-rule="evenodd"
   fill="#ffffff"
   points="209,492.756 209,300 401.756,300 401.756,492.756 "
   id="polygon2" />
	<path
   fill-rule="evenodd"
   clip-rule="evenodd"
   fill="#0072b6"
   d="m 245.245,316.257 v 104.438 h 59.093 v -34.426 l -11.045,6.473 c 1.08,3.272 -0.226,6.963 -3.32,8.776 -3.561,2.087 -8.133,0.891 -10.217,-2.67 -2.087,-3.557 -0.893,-8.135 2.666,-10.219 3.043,-1.785 6.834,-1.168 9.174,1.278 l 11.175,-6.552 -11.128,-6.388 c -2.308,2.56 -6.16,3.259 -9.268,1.473 -3.578,-2.049 -4.813,-6.617 -2.762,-10.191 2.052,-3.582 6.623,-4.822 10.2,-2.762 3.059,1.754 4.405,5.346 3.446,8.587 l 11.081,6.36 v -12.775 c -3.288,-0.781 -5.74,-3.735 -5.74,-7.265 0,-4.126 3.344,-7.471 7.47,-7.471 4.128,0 7.472,3.345 7.472,7.471 0,3.584 -2.525,6.58 -5.896,7.299 v 12.803 l 11.149,-6.535 c -0.987,-3.235 0.322,-6.84 3.372,-8.626 3.558,-2.09 8.136,-0.891 10.219,2.667 2.091,3.564 0.895,8.139 -2.665,10.223 -3.096,1.813 -6.954,1.147 -9.28,-1.395 l -11.076,6.49 11.243,6.453 c 2.313,-2.467 6.097,-3.119 9.16,-1.36 3.578,2.049 4.812,6.617 2.756,10.195 -2.046,3.581 -6.614,4.814 -10.192,2.762 -3.11,-1.785 -4.447,-5.466 -3.399,-8.749 l -10.688,-6.134 v 34.208 h 48.398 6.689 v -8.472 -95.966 z"
   id="path4" />
	<path
   fill-rule="evenodd"
   clip-rule="evenodd"
   fill="#0072b6"
   d="m 235.98,469.994 c 0,-1.559 0.727,-2.337 2.183,-2.337 0.118,0 0.346,0.034 0.689,0.109 0.344,0.075 0.641,0.213 0.889,0.426 0.25,0.205 0.567,0.492 0.951,0.87 1.375,1.233 2.887,2.097 4.537,2.583 1.259,0.34 2.411,0.508 3.447,0.508 1.756,0 3.202,-0.356 4.332,-1.063 1.131,-0.709 1.849,-1.658 2.155,-2.845 0.151,-0.686 0.231,-1.165 0.231,-1.436 0,-2.368 -1.556,-3.903 -4.661,-4.596 l -2.241,-0.514 -0.924,-0.172 -1.725,-0.342 c -3.028,-0.692 -5.241,-1.693 -6.641,-3.016 -1.4,-1.323 -2.097,-3.036 -2.097,-5.141 0,-0.61 0.058,-1.265 0.173,-1.953 0.346,-2.104 1.515,-3.866 3.514,-5.281 2.001,-1.415 4.455,-2.128 7.377,-2.128 0.31,0 0.637,0 0.983,0 0.456,0.082 0.881,0.137 1.265,0.178 0.384,0.034 0.886,0.134 1.501,0.288 0.611,0.154 1.208,0.343 1.787,0.576 1.958,0.733 3.379,1.621 4.265,2.659 0.766,0.891 1.053,1.754 0.863,2.604 -0.301,1.117 -0.993,1.672 -2.088,1.672 -0.298,0 -0.528,-0.034 -0.679,-0.116 l -0.671,-0.343 -0.983,-0.809 c -0.658,-0.535 -1.256,-0.945 -1.796,-1.237 -0.538,-0.284 -1.138,-0.527 -1.791,-0.724 -0.077,-0.033 -0.252,-0.085 -0.522,-0.14 -0.269,-0.059 -0.559,-0.113 -0.864,-0.172 -0.31,-0.058 -0.812,-0.089 -1.506,-0.089 -0.848,0 -1.62,0.113 -2.313,0.347 -0.692,0.226 -1.35,0.575 -1.965,1.034 -1.119,0.877 -1.677,1.95 -1.677,3.215 0,1.377 0.612,2.412 1.84,3.098 0.499,0.309 0.976,0.528 1.435,0.662 0.458,0.137 1.325,0.339 2.587,0.603 l 1.493,0.343 1.727,0.347 c 5.935,1.418 8.904,4.286 8.904,8.614 0,0.956 -0.133,1.95 -0.403,2.982 -0.536,2.148 -1.798,3.889 -3.795,5.229 -1.994,1.337 -4.487,2.008 -7.477,2.008 -0.802,0 -1.761,-0.064 -2.875,-0.199 -1.11,-0.133 -2.28,-0.465 -3.509,-1 -2.03,-0.911 -3.525,-1.823 -4.484,-2.734 -0.959,-0.913 -1.441,-1.769 -1.441,-2.568 z"
   id="path6" />
	<path
   fill-rule="evenodd"
   clip-rule="evenodd"
   fill="#0072b6"
   d="m 264.639,460.152 0.103,-3.817 c 0.106,-3.935 1.28,-7.05 3.528,-9.346 2.248,-2.292 4.995,-3.399 8.25,-3.311 0.999,0.024 1.885,0.127 2.666,0.306 0.78,0.175 1.662,0.507 2.649,0.994 1.741,0.822 3.072,1.829 4.002,3.016 0.814,1.021 1.21,2.001 1.187,2.926 -0.005,0.151 -0.049,0.385 -0.135,0.692 -0.331,0.912 -0.998,1.357 -1.995,1.333 -0.23,-0.007 -0.486,-0.055 -0.773,-0.141 -0.284,-0.082 -0.598,-0.28 -0.932,-0.6 l -0.896,-1.12 -0.665,-0.829 c -1.422,-1.467 -3.029,-2.228 -4.832,-2.276 -0.386,-0.007 -0.674,0 -0.867,0.038 -2.116,0.213 -3.736,1.065 -4.851,2.563 -1.112,1.49 -1.708,3.78 -1.794,6.871 -0.139,5.243 0.239,8.906 1.146,11 0.907,2.087 2.58,3.297 5.026,3.633 0.191,0.041 0.502,0.068 0.921,0.082 0.54,0.014 1.134,-0.068 1.792,-0.243 1.197,-0.319 2.113,-0.799 2.742,-1.443 0.632,-0.644 1.276,-1.737 1.933,-3.269 l 0.372,-0.926 c 0.123,-0.383 0.391,-0.709 0.8,-0.966 0.411,-0.268 0.808,-0.391 1.191,-0.377 0.766,0.017 1.313,0.28 1.648,0.798 0.334,0.511 0.488,1.097 0.467,1.752 -0.015,0.623 -0.154,1.274 -0.417,1.967 -0.271,0.692 -0.699,1.474 -1.296,2.351 -2.145,3.159 -5.12,4.688 -8.934,4.589 -4.267,-0.113 -7.378,-1.453 -9.33,-4.013 -1.955,-2.564 -2.853,-6.641 -2.706,-12.234 z"
   id="path8" />
	<path
   fill-rule="evenodd"
   clip-rule="evenodd"
   fill="#0072b6"
   d="m 316.703,452.706 v 20.455 c 0,2.217 -0.727,3.323 -2.176,3.323 -1.34,0 -2.06,-0.685 -2.172,-2.049 v -0.542 -0.363 l -0.23,0.244 -0.175,0.171 -0.291,0.24 -0.404,0.294 -0.463,0.354 -0.466,0.295 c -1.663,0.901 -3.599,1.356 -5.8,1.356 -0.389,0 -0.699,0 -0.932,0 -0.271,0 -0.464,0 -0.579,0 -2.397,-0.273 -4.379,-1.041 -5.947,-2.303 -1.566,-1.262 -2.582,-2.885 -3.043,-4.866 -0.274,-1.281 -0.407,-2.33 -0.407,-3.149 0,-2.875 1.06,-5.137 3.182,-6.788 2.118,-1.651 5.107,-2.474 8.963,-2.474 h 2.142 0.983 1.329 0.292 0.287 0.639 c 0.616,-0.117 0.922,-0.515 0.922,-1.18 v -1.299 -0.531 c 0,-4.043 -1.979,-6.065 -5.941,-6.065 -0.307,0 -0.632,0.021 -0.979,0.059 -0.347,0.037 -0.617,0.059 -0.808,0.059 -1.114,0.157 -2.008,0.444 -2.681,0.87 -0.672,0.425 -1.489,1.24 -2.451,2.439 l -0.402,0.521 c -0.307,0.388 -0.788,0.658 -1.443,0.813 h -0.978 c -1.117,-0.308 -1.672,-1.065 -1.672,-2.265 0,-0.384 0.135,-0.85 0.399,-1.392 0.462,-0.888 1.348,-1.833 2.654,-2.834 1.491,-1.158 3.393,-1.908 5.699,-2.255 0.766,-0.113 1.493,-0.175 2.185,-0.175 0.77,0 1.499,0.062 2.191,0.178 2.915,0.463 5.073,1.449 6.476,2.94 1.395,1.501 2.097,3.472 2.097,5.919 z m -6.082,8.05 c -0.95,0.021 -0.867,0 -0.867,0 h -1.16 -2.664 c -2.706,0 -4.647,0.473 -5.822,1.418 -1.179,0.946 -1.77,2.398 -1.77,4.366 0,3.348 1.875,5.253 5.62,5.727 0.266,0.037 0.675,0.059 1.217,0.059 0.538,0 0.946,-0.038 1.214,-0.117 3.979,-0.672 5.967,-3.126 5.967,-7.382 v -1.25 c 0.16,-2.777 -0.621,-2.842 -1.735,-2.821 z"
   id="path10" />
	<path
   fill-rule="evenodd"
   clip-rule="evenodd"
   fill="#0072b6"
   d="m 341.278,443.467 v -7.471 c 0,-1.388 0.331,-2.32 1.004,-2.782 0.294,-0.229 0.698,-0.347 1.227,-0.347 1.11,0 1.765,0.483 1.946,1.453 l 0.168,1.446 v 37.463 c 0,2.09 -0.733,3.139 -2.196,3.139 -1.433,0 -2.148,-0.966 -2.148,-2.902 v -0.579 c -0.655,1.045 -1.614,1.885 -2.879,2.521 -1.271,0.638 -2.766,0.96 -4.493,0.96 -0.767,0 -1.686,-0.1 -2.762,-0.291 -3.263,-0.654 -5.572,-2.368 -6.936,-5.138 -1.364,-2.762 -2.043,-7.12 -2.043,-13.084 0,-4.136 0.73,-7.309 2.2,-9.513 1.35,-2.011 3.455,-3.405 6.313,-4.174 0.966,-0.273 2.008,-0.411 3.125,-0.411 0.583,0 1.295,0.068 2.142,0.206 0.854,0.13 1.704,0.4 2.554,0.802 0.846,0.405 2.647,0.634 2.778,-1.298 z m -14.544,16.819 c 0,4.26 0.638,7.336 1.908,9.231 1.152,1.745 2.978,2.611 5.483,2.611 2.419,0 4.218,-0.774 5.391,-2.32 1.176,-1.549 1.762,-4.043 1.762,-7.49 0,-0.654 0,-1.33 0,-2.032 0,-0.696 0,-1.392 0,-2.087 -0.004,-0.274 -0.004,-0.467 0,-0.583 0,-3.29 -0.449,-5.62 -1.337,-6.994 -0.895,-1.374 -2.423,-2.237 -4.596,-2.587 -0.699,-0.076 -1.203,-0.113 -1.515,-0.113 -2.248,0 -3.992,0.854 -5.232,2.553 -1.237,1.703 -1.864,4.314 -1.864,7.838 z"
   id="path12" />
	<path
   fill-rule="evenodd"
   clip-rule="evenodd"
   fill="#0072b6"
   d="m 374.775,452.686 v 20.413 c 0,2.214 -0.727,3.317 -2.173,3.317 -1.336,0 -2.063,-0.678 -2.176,-2.042 v -0.538 -0.36 l -0.229,0.233 -0.18,0.179 -0.287,0.232 -0.404,0.299 -0.467,0.353 -0.466,0.294 c -1.658,0.905 -3.591,1.351 -5.798,1.351 -0.391,0 -0.696,0 -0.926,0 -0.273,0 -0.469,0 -0.582,0 -2.399,-0.267 -4.38,-1.035 -5.949,-2.296 -1.563,-1.261 -2.581,-2.879 -3.043,-4.853 -0.271,-1.285 -0.408,-2.33 -0.408,-3.146 0,-2.868 1.063,-5.127 3.184,-6.775 2.118,-1.648 5.106,-2.471 8.965,-2.471 h 2.139 0.979 1.337 0.28 0.292 0.638 c 0.613,-0.116 0.925,-0.511 0.925,-1.175 v -1.296 -0.531 c 0,-4.033 -1.977,-6.052 -5.938,-6.052 -0.309,0 -0.631,0.021 -0.98,0.059 -0.346,0.038 -0.616,0.055 -0.809,0.055 -1.109,0.154 -2.005,0.445 -2.68,0.874 -0.672,0.422 -1.487,1.233 -2.453,2.433 l -0.401,0.518 c -0.306,0.391 -0.788,0.661 -1.439,0.813 h -0.983 c -1.11,-0.309 -1.669,-1.063 -1.669,-2.262 0,-0.384 0.13,-0.847 0.404,-1.389 0.456,-0.887 1.34,-1.833 2.648,-2.826 1.491,-1.158 3.393,-1.905 5.695,-2.249 0.769,-0.116 1.502,-0.178 2.19,-0.178 0.765,0 1.497,0.062 2.183,0.178 2.92,0.463 5.079,1.446 6.48,2.938 1.402,1.492 2.101,3.455 2.101,5.9 z m -4.462,8.039 h -0.349 -0.233 -1.042 -0.863 -1.165 -2.663 c -2.7,0 -4.644,0.469 -5.822,1.416 -1.172,0.938 -1.761,2.391 -1.761,4.358 0,3.334 1.87,5.243 5.612,5.709 0.274,0.041 0.679,0.059 1.22,0.059 0.538,0 0.939,-0.038 1.214,-0.113 3.982,-0.671 5.966,-3.122 5.966,-7.364 v -3.358 z"
   id="path14" />
</g>
</svg>
