<?xml version="1.0" encoding="UTF-8" standalone="no"?>
<!-- Created with Inkscape (http://www.inkscape.org/) -->

<svg
   version="1.1"
   id="svg2"
   xml:space="preserve"
   width="88"
   height="88"
   viewBox="0 0 88 88"
   sodipodi:docname="Mockup_ver_2.ai.svg"
   inkscape:version="1.1 (ce6663b3b7, 2021-05-25)"
   xmlns:inkscape="http://www.inkscape.org/namespaces/inkscape"
   xmlns:sodipodi="http://sodipodi.sourceforge.net/DTD/sodipodi-0.dtd"
   xmlns="http://www.w3.org/2000/svg"
   xmlns:svg="http://www.w3.org/2000/svg"><defs
     id="defs6"><radialGradient
       fx="0"
       fy="0"
       cx="0"
       cy="0"
       r="1"
       gradientUnits="userSpaceOnUse"
       gradientTransform="matrix(29,0,0,-29,33,33)"
       spreadMethod="pad"
       id="radialGradient28"><stop
         style="stop-opacity:1;stop-color:#008fd9"
         offset="0"
         id="stop22" /><stop
         style="stop-opacity:1;stop-color:#008fd9"
         offset="0"
         id="stop24" /><stop
         style="stop-opacity:1;stop-color:#008fd9"
         offset="1"
         id="stop26" /></radialGradient><clipPath
       clipPathUnits="userSpaceOnUse"
       id="clipPath38"><path
         d="M 0,66 H 66 V 0 H 0 Z"
         id="path36" /></clipPath><clipPath
       clipPathUnits="userSpaceOnUse"
       id="clipPath50"><path
         d="M 5.019,5.575 H 61.255 V 60.426 H 5.019 Z"
         id="path48" /></clipPath><clipPath
       clipPathUnits="userSpaceOnUse"
       id="clipPath66"><path
         d="m 27.188,33.0489 h 29.7137 v -7.431 H 27.188 Z"
         id="path64" /></clipPath><linearGradient
       x1="0"
       y1="0"
       x2="1"
       y2="0"
       gradientUnits="userSpaceOnUse"
       gradientTransform="matrix(0,-14.113901,-14.113901,0,12.311583,31.170401)"
       spreadMethod="pad"
       id="linearGradient112"><stop
         style="stop-opacity:1;stop-color:#ffffff"
         offset="0"
         id="stop108" /><stop
         style="stop-opacity:1;stop-color:#008fd9"
         offset="1"
         id="stop110" /></linearGradient><clipPath
       clipPathUnits="userSpaceOnUse"
       id="clipPath122"><path
         d="M 5.019,5.575 H 61.255 V 60.426 H 5.019 Z"
         id="path120" /></clipPath><clipPath
       clipPathUnits="userSpaceOnUse"
       id="clipPath134"><path
         d="M 0,66 H 66 V 0 H 0 Z"
         id="path132" /></clipPath></defs><sodipodi:namedview
     id="namedview4"
     pagecolor="#ffffff"
     bordercolor="#666666"
     borderopacity="1.0"
     inkscape:pageshadow="2"
     inkscape:pageopacity="0.0"
     inkscape:pagecheckerboard="0"
     showgrid="false"
     inkscape:zoom="8.75"
     inkscape:cx="44.057143"
     inkscape:cy="44.057143"
     inkscape:window-width="1920"
     inkscape:window-height="942"
     inkscape:window-x="0"
     inkscape:window-y="27"
     inkscape:window-maximized="1"
     inkscape:current-layer="g8" /><g
     id="g8"
     inkscape:groupmode="layer"
     inkscape:label="Mockup_ver_2"
     transform="matrix(1.3333333,0,0,-1.3333333,0,88)"><g
       id="g10"><g
         id="g12"><g
           id="g18"><g
             id="g20"><path
               d="M 13.116,62 C 8.089,62 4,57.911 4,52.884 v 0 -39.769 C 4,8.089 8.089,4 13.116,4 V 4 H 52.885 C 57.911,4 62,8.089 62,13.115 v 0 39.769 C 62,57.911 57.911,62 52.885,62 v 0 z"
               style="fill:url(#radialGradient28);stroke:none"
               id="path30" /></g></g></g></g><g
       id="g32"><g
         id="g34"
         clip-path="url(#clipPath38)"><g
           id="g40"
           transform="translate(52.8848,63)"><path
             d="m 0,0 h -39.769 c -5.587,0 -10.116,-4.529 -10.116,-10.116 v -39.769 c 0,-5.586 4.529,-10.115 10.116,-10.115 H 0 c 5.586,0 10.115,4.529 10.115,10.115 v 39.769 C 10.115,-4.529 5.586,0 0,0 m 0,-2 c 4.475,0 8.115,-3.641 8.115,-8.116 V -49.885 C 8.115,-54.359 4.475,-58 0,-58 h -39.769 c -4.475,0 -8.116,3.641 -8.116,8.115 v 39.769 c 0,4.475 3.641,8.116 8.116,8.116 H 0"
             style="fill:#b3b3b3;fill-opacity:1;fill-rule:nonzero;stroke:none"
             id="path42" /></g></g></g><g
       id="g44"><g
         id="g46"
         clip-path="url(#clipPath50)"><g
           id="g52"
           transform="translate(50.7549,38.9326)"><path
             d="m 0,0 c 8.485,-0.441 7.901,-11.294 0,-11.865 l -28.867,-1.776 c -4.2,0 -7.709,3.508 -7.709,7.708 0,4.201 3.508,7.708 7.709,7.708 z"
             style="fill:#ffffff;fill-opacity:1;fill-rule:nonzero;stroke:none"
             id="path54" /></g><g
           id="g56"
           transform="translate(48.4863,39.0718)"><path
             d="m 0,0 2.269,-0.139 c 8.485,-0.442 7.901,-11.294 0,-11.865 L 0,-12.144 C 3.773,-9.096 3.965,-2.898 0,0"
             style="fill:#d0ecf4;fill-opacity:1;fill-rule:nonzero;stroke:none"
             id="path58" /></g><g
           id="g60"><g
             id="g62" /><g
             id="g74"><g
               clip-path="url(#clipPath66)"
               id="g72"><g
                 transform="translate(56.9014,33.041)"
                 id="g70"><path
                   d="m 0,0 h -28.086 c 0.484,-0.517 0.354,-5.224 -1.627,-7.423 l 23.567,1.449 c 3.95,0.287 6.072,3.142 6.144,5.982 z"
                   style="fill:#92d7e7;fill-opacity:1;fill-rule:nonzero;stroke:none"
                   id="path68" /></g></g></g></g><g
           id="g76"
           transform="translate(21.8877,40.708)"><path
             d="m 0,0 c -4.201,0 -7.708,-3.508 -7.708,-7.708 0,-4.2 3.508,-7.708 7.708,-7.708 l 28.867,1.775 c 7.902,0.572 8.486,11.424 0,11.866 z m -0.03,-1 28.845,-1.774 c 3.804,-0.198 5.178,-2.647 5.199,-4.684 0.023,-2.313 -1.6,-4.923 -5.208,-5.185 L -0.03,-14.416 c -3.623,0.017 -6.678,3.082 -6.678,6.708 0,3.626 3.055,6.692 6.678,6.708"
             style="fill:#b3b3b3;fill-opacity:1;fill-rule:nonzero;stroke:none"
             id="path78" /></g><g
           id="g80"
           transform="translate(5.8081,17.0508)"><path
             d="m 0,0 c 0,0.661 2.912,1.197 6.503,1.197 3.592,0 6.504,-0.536 6.504,-1.197 0,-0.66 -2.912,-1.196 -6.504,-1.196 C 2.912,-1.196 0,-0.66 0,0 Z"
             style="fill:none;stroke:#d0ecf4;stroke-width:0.25;stroke-linecap:butt;stroke-linejoin:miter;stroke-miterlimit:10;stroke-dasharray:none;stroke-opacity:1"
             id="path82" /></g><g
           id="g84"
           transform="translate(-0.2744,17.0508)"><path
             d="m 0,0 c 0,1.279 5.635,2.316 12.586,2.316 6.951,0 12.586,-1.037 12.586,-2.316 0,-1.278 -5.635,-2.315 -12.586,-2.315 C 5.635,-2.315 0,-1.278 0,0 Z"
             style="fill:none;stroke:#d0ecf4;stroke-width:0.25;stroke-linecap:butt;stroke-linejoin:miter;stroke-miterlimit:10;stroke-dasharray:none;stroke-opacity:1"
             id="path86" /></g><g
           id="g88"
           transform="translate(-7.6069,17.0508)"><path
             d="M 0,0 C 0,2.024 8.918,3.666 19.918,3.666 30.919,3.666 39.837,2.024 39.837,0 39.837,-2.024 30.919,-3.665 19.918,-3.665 8.918,-3.665 0,-2.024 0,0 Z"
             style="fill:none;stroke:#d0ecf4;stroke-width:0.25;stroke-linecap:butt;stroke-linejoin:miter;stroke-miterlimit:10;stroke-dasharray:none;stroke-opacity:1"
             id="path90" /></g><g
           id="g92"
           transform="translate(8.418,17.0508)"><path
             d="M 0,0 C 0,0.396 1.743,0.717 3.894,0.717 6.044,0.717 7.787,0.396 7.787,0 7.787,-0.396 6.044,-0.716 3.894,-0.716 1.743,-0.716 0,-0.396 0,0 Z"
             style="fill:none;stroke:#d0ecf4;stroke-width:0.25;stroke-linecap:butt;stroke-linejoin:miter;stroke-miterlimit:10;stroke-dasharray:none;stroke-opacity:1"
             id="path94" /></g></g></g><g
       id="g96"><g
         id="g98"><g
           id="g104"><g
             id="g106"><path
               d="M 11.623,16.889 H 13 v 14.28 h -1.377 z"
               style="fill:url(#linearGradient112);stroke:none"
               id="path114" /></g></g></g></g><g
       id="g116"><g
         id="g118"
         clip-path="url(#clipPath122)"><g
           id="g124"
           transform="translate(13.3794,31.2354)"><path
             d="m 0,0 c 0,-0.214 -0.477,-0.387 -1.064,-0.387 -0.588,0 -1.064,0.173 -1.064,0.387 v 0.951 c 0,1.14 0.923,2.064 2.064,2.064 h 3.902 c 0.214,0 0.387,-0.412 0.387,-0.92 0,-0.508 -0.173,-0.92 -0.387,-0.92 L 0.761,1.172 C 0.353,1.21 0,0.889 0,0.479 Z"
             style="fill:#b3b3b3;fill-opacity:1;fill-rule:nonzero;stroke:none"
             id="path126" /></g></g></g><g
       id="g128"><g
         id="g130"
         clip-path="url(#clipPath134)"><g
           id="g136"
           transform="translate(52.8848,63)"><path
             d="m 0,0 h -39.769 c -5.587,0 -10.116,-4.529 -10.116,-10.116 v -39.769 c 0,-5.586 4.529,-10.115 10.116,-10.115 H 0 c 5.586,0 10.115,4.529 10.115,10.115 v 39.769 C 10.115,-4.529 5.586,0 0,0 m 0,-2 c 4.475,0 8.115,-3.641 8.115,-8.116 V -49.885 C 8.115,-54.359 4.475,-58 0,-58 h -39.769 c -4.475,0 -8.116,3.641 -8.116,8.115 v 39.769 c 0,4.475 3.641,8.116 8.116,8.116 H 0"
             style="fill:#b3b3b3;fill-opacity:1;fill-rule:nonzero;stroke:none"
             id="path138" /></g></g></g></g></svg>
